<?xml version="1.0" encoding="UTF-8" standalone="no"?><svg xmlns="http://www.w3.org/2000/svg" xmlns:xlink="http://www.w3.org/1999/xlink" contentScriptType="application/ecmascript" contentStyleType="text/css" height="401px" preserveAspectRatio="none" style="width:492px;height:401px;" version="1.1" viewBox="0 0 492 401" width="492px" zoomAndPan="magnify"><defs/><g><!--cluster broker.input--><polygon fill="#FFFFFF" points="22,24,115,24,122,47.6094,315,47.6094,315,314,22,314,22,24" style="stroke: #A0A0A0; stroke-width: 1.5;"/><line style="stroke: #A0A0A0; stroke-width: 1.5;" x1="22" x2="122" y1="47.6094" y2="47.6094"/><text fill="#A0A0A0" font-family="sans-serif" font-size="14" font-weight="bold" lengthAdjust="spacingAndGlyphs" textLength="87" x="26" y="40.5332">broker.input</text><!--class ButtonStatus--><rect fill="#FFFFFF" height="32" id="ButtonStatus" style="stroke: #202020; stroke-width: 1.5;" width="102" x="164" y="266"/><ellipse cx="179" cy="282" fill="#ADD1B2" rx="11" ry="11" style="stroke: #202020; stroke-width: 1.0;"/><path d="M182.6875,283.2031 Q182.4375,286.6875 181.2969,287.8438 Q180.2656,288.8594 178.8594,288.8594 Q177.4531,288.8594 176.4219,287.8438 Q174.6719,286.0781 174.6719,282.4063 Q174.6719,278.1563 176.5469,276.25 Q177.5938,275.2344 178.9219,275.2344 Q180.3281,275.2344 181.1719,276.0469 Q182.6563,277.5625 182.5781,280.4375 L180.4531,280.4375 Q180.375,278.1094 179.7344,277.4688 Q179.4531,277.1719 178.9219,277.1719 Q178.4688,277.1719 178.1094,277.5469 Q176.875,278.7656 176.875,282.2813 Q176.875,285.3281 177.9219,286.3438 Q178.3438,286.7813 178.8594,286.7813 Q179.3125,286.7813 179.75,286.3438 Q180.3125,285.7969 180.3906,283.2031 L182.6875,283.2031 Z "/><text fill="#000000" font-family="sans-serif" font-size="12" lengthAdjust="spacingAndGlyphs" textLength="70" x="193" y="286.9102">ButtonStatus</text><!--class GamepadBase--><rect fill="#FFFFFF" height="32" id="GamepadBase" style="stroke: #202020; stroke-width: 1.5;" width="116" x="157" y="60"/><ellipse cx="172" cy="76" fill="#ADD1B2" rx="11" ry="11" style="stroke: #202020; stroke-width: 1.0;"/><path d="M175.6875,77.2031 Q175.4375,80.6875 174.2969,81.8438 Q173.2656,82.8594 171.8594,82.8594 Q170.4531,82.8594 169.4219,81.8438 Q167.6719,80.0781 167.6719,76.4063 Q167.6719,72.1563 169.5469,70.25 Q170.5938,69.2344 171.9219,69.2344 Q173.3281,69.2344 174.1719,70.0469 Q175.6563,71.5625 175.5781,74.4375 L173.4531,74.4375 Q173.375,72.1094 172.7344,71.4688 Q172.4531,71.1719 171.9219,71.1719 Q171.4688,71.1719 171.1094,71.5469 Q169.875,72.7656 169.875,76.2813 Q169.875,79.3281 170.9219,80.3438 Q171.3438,80.7813 171.8594,80.7813 Q172.3125,80.7813 172.75,80.3438 Q173.3125,79.7969 173.3906,77.2031 L175.6875,77.2031 Z "/><text fill="#000000" font-family="sans-serif" font-size="12" lengthAdjust="spacingAndGlyphs" textLength="84" x="186" y="80.9102">GamepadBase</text><!--class Stick--><rect fill="#FFFFFF" height="32" id="Stick" style="stroke: #202020; stroke-width: 1.5;" width="58" x="38" y="163"/><ellipse cx="53" cy="179" fill="#ADD1B2" rx="11" ry="11" style="stroke: #202020; stroke-width: 1.0;"/><path d="M56.6875,180.2031 Q56.4375,183.6875 55.2969,184.8438 Q54.2656,185.8594 52.8594,185.8594 Q51.4531,185.8594 50.4219,184.8438 Q48.6719,183.0781 48.6719,179.4063 Q48.6719,175.1563 50.5469,173.25 Q51.5938,172.2344 52.9219,172.2344 Q54.3281,172.2344 55.1719,173.0469 Q56.6563,174.5625 56.5781,177.4375 L54.4531,177.4375 Q54.375,175.1094 53.7344,174.4688 Q53.4531,174.1719 52.9219,174.1719 Q52.4688,174.1719 52.1094,174.5469 Q50.875,175.7656 50.875,179.2813 Q50.875,182.3281 51.9219,183.3438 Q52.3438,183.7813 52.8594,183.7813 Q53.3125,183.7813 53.75,183.3438 Q54.3125,182.7969 54.3906,180.2031 L56.6875,180.2031 Z "/><text fill="#000000" font-family="sans-serif" font-size="12" lengthAdjust="spacingAndGlyphs" textLength="26" x="67" y="183.9102">Stick</text><!--class GenericButtonStatusMap--><rect fill="#FFFFFF" height="32" id="GenericButtonStatusMap" style="stroke: #202020; stroke-width: 1.5;" width="167" x="131.5" y="163"/><ellipse cx="146.5" cy="179" fill="#E6E6FA" rx="11" ry="11" style="stroke: #202020; stroke-width: 1.0;"/><path d="M147.6719,183.7188 L148.4063,183.7188 L148.4063,185.8594 L144.7188,185.8594 L144.7188,183.7188 L145.4531,183.7188 L145.4531,174.375 L144.7188,174.375 L144.7188,172.2344 L148.4063,172.2344 L148.4063,174.375 L147.6719,174.375 L147.6719,183.7188 Z "/><text fill="#000000" font-family="sans-serif" font-size="12" font-style="italic" lengthAdjust="spacingAndGlyphs" textLength="135" x="160.5" y="183.9102">GenericButtonStatusMap</text><!--class YourGamepad--><rect fill="#FFFFFF" height="53.8359" id="YourGamepad" style="stroke: #202020; stroke-width: 1.5;" width="112" x="342" y="152"/><ellipse cx="357" cy="168" fill="#ADD1B2" rx="11" ry="11" style="stroke: #202020; stroke-width: 1.0;"/><path d="M360.6875,169.2031 Q360.4375,172.6875 359.2969,173.8438 Q358.2656,174.8594 356.8594,174.8594 Q355.4531,174.8594 354.4219,173.8438 Q352.6719,172.0781 352.6719,168.4063 Q352.6719,164.1563 354.5469,162.25 Q355.5938,161.2344 356.9219,161.2344 Q358.3281,161.2344 359.1719,162.0469 Q360.6563,163.5625 360.5781,166.4375 L358.4531,166.4375 Q358.375,164.1094 357.7344,163.4688 Q357.4531,163.1719 356.9219,163.1719 Q356.4688,163.1719 356.1094,163.5469 Q354.875,164.7656 354.875,168.2813 Q354.875,171.3281 355.9219,172.3438 Q356.3438,172.7813 356.8594,172.7813 Q357.3125,172.7813 357.75,172.3438 Q358.3125,171.7969 358.3906,169.2031 L360.6875,169.2031 Z "/><text fill="#000000" font-family="sans-serif" font-size="12" lengthAdjust="spacingAndGlyphs" textLength="80" x="371" y="172.9102">YourGamepad</text><line style="stroke: #202020; stroke-width: 1.5;" x1="343" x2="453" y1="184" y2="184"/><text fill="#000000" font-family="sans-serif" font-size="11" lengthAdjust="spacingAndGlyphs" textLength="41" x="348" y="199.4189">update()</text><!--class YourButton--><rect fill="#FFFFFF" height="32" id="YourButton" style="stroke: #202020; stroke-width: 1.5;" width="92" x="360" y="358"/><ellipse cx="375" cy="374" fill="#EB937F" rx="11" ry="11" style="stroke: #202020; stroke-width: 1.0;"/><path d="M373.7188,372.6719 L378.2344,372.6719 L378.2344,374.625 L373.7188,374.625 L373.7188,378.9219 L378.9531,378.9219 L378.9531,380.8594 L371.5,380.8594 L371.5,367.2344 L378.625,367.2344 L378.625,369.1719 L373.7188,369.1719 L373.7188,372.6719 Z "/><text fill="#000000" font-family="sans-serif" font-size="12" lengthAdjust="spacingAndGlyphs" textLength="60" x="389" y="378.9102">YourButton</text><!--class YourButtonStatusMap--><rect fill="#FFFFFF" height="32" id="YourButtonStatusMap" style="stroke: #202020; stroke-width: 1.5;" width="150" x="331" y="266"/><ellipse cx="346" cy="282" fill="#ADD1B2" rx="11" ry="11" style="stroke: #202020; stroke-width: 1.0;"/><path d="M349.6875,283.2031 Q349.4375,286.6875 348.2969,287.8438 Q347.2656,288.8594 345.8594,288.8594 Q344.4531,288.8594 343.4219,287.8438 Q341.6719,286.0781 341.6719,282.4063 Q341.6719,278.1563 343.5469,276.25 Q344.5938,275.2344 345.9219,275.2344 Q347.3281,275.2344 348.1719,276.0469 Q349.6563,277.5625 349.5781,280.4375 L347.4531,280.4375 Q347.375,278.1094 346.7344,277.4688 Q346.4531,277.1719 345.9219,277.1719 Q345.4688,277.1719 345.1094,277.5469 Q343.875,278.7656 343.875,282.2813 Q343.875,285.3281 344.9219,286.3438 Q345.3438,286.7813 345.8594,286.7813 Q346.3125,286.7813 346.75,286.3438 Q347.3125,285.7969 347.3906,283.2031 L349.6875,283.2031 Z "/><text fill="#000000" font-family="sans-serif" font-size="12" lengthAdjust="spacingAndGlyphs" textLength="118" x="360" y="286.9102">YourButtonStatusMap</text><!--reverse link GenericButtonStatusMap to ButtonStatus--><path d="M215,208.399 C215,227.046 215,250.701 215,265.847 " fill="none" id="GenericButtonStatusMap&lt;-ButtonStatus" style="stroke: #202020; stroke-width: 1.0;"/><polygon fill="#202020" points="215,195.34,211,201.34,215,207.34,219,201.34,215,195.34" style="stroke: #202020; stroke-width: 1.0;"/><text fill="#000000" font-family="sans-serif" font-size="13" lengthAdjust="spacingAndGlyphs" textLength="7" x="206.7969" y="255.0999">n</text><!--reverse link GamepadBase to GenericButtonStatusMap--><path d="M215,105.399 C215,124.046 215,147.701 215,162.847 " fill="none" id="GamepadBase&lt;-GenericButtonStatusMap" style="stroke: #202020; stroke-width: 1.0;"/><polygon fill="#202020" points="215,92.34,211,98.34,215,104.34,219,98.34,215,92.34" style="stroke: #202020; stroke-width: 1.0;"/><!--reverse link GamepadBase to Stick--><path d="M181.908,99.583 C153.688,118.842 113.894,145.998 89.3086,162.776 " fill="none" id="GamepadBase&lt;-Stick" style="stroke: #202020; stroke-width: 1.0;"/><polygon fill="#202020" points="192.843,92.121,185.6323,92.1992,182.9312,98.8853,190.1419,98.8071,192.843,92.121" style="stroke: #202020; stroke-width: 1.0;"/><!--reverse link GamepadBase to YourGamepad--><path d="M260.083,101.882 C287.661,117.102 322.891,136.546 350.84,151.972 " fill="none" id="GamepadBase&lt;-YourGamepad" style="stroke: #202020; stroke-width: 1.0;"/><polygon fill="none" points="256.525,107.913,242.397,92.121,263.29,95.656,256.525,107.913" style="stroke: #202020; stroke-width: 1.0;"/><!--reverse link GenericButtonStatusMap to YourButtonStatusMap--><path d="M261.703,204.696 C297.927,223.851 346.959,249.779 377.522,265.941 " fill="none" id="GenericButtonStatusMap&lt;-YourButtonStatusMap" style="stroke: #202020; stroke-width: 1.0; stroke-dasharray: 7.0,7.0;"/><polygon fill="none" points="258.003,210.658,243.595,195.121,264.547,198.282,258.003,210.658" style="stroke: #202020; stroke-width: 1.0;"/><!--reverse link YourGamepad to YourButtonStatusMap--><path d="M401.101,219.148 C402.392,235.445 403.814,253.404 404.792,265.753 " fill="none" id="YourGamepad&lt;-YourButtonStatusMap" style="stroke: #202020; stroke-width: 1.0;"/><polygon fill="#202020" points="400.06,206.01,396.5465,212.3073,401.0081,217.9725,404.5215,211.6752,400.06,206.01" style="stroke: #202020; stroke-width: 1.0;"/><!--reverse link YourButtonStatusMap to YourButton--><path d="M406,311.3401 C406,326.7851 406,345.2788 406,357.9582 " fill="none" id="YourButtonStatusMap&lt;-YourButton" style="stroke: #202020; stroke-width: 1.0;"/><polygon fill="#FFFFFF" points="406,298.2673,402,304.2673,406,310.2673,410,304.2673,406,298.2673" style="stroke: #202020; stroke-width: 1.0;"/><text fill="#000000" font-family="sans-serif" font-size="13" lengthAdjust="spacingAndGlyphs" textLength="7" x="397.7969" y="347.2494">n</text><!--
@startuml gamepad


skinparam shadowing false
skinparam backgroundColor White
skinparam package {
  BorderColor #A0A0A0
  FontColor #A0A0A0
}
skinparam class {
  BackgroundColor White
  ArrowColor #202020
  BorderColor #202020
  FontColor #000000
}
skinparam note {
  BackgroundColor White
  FontColor #606060
  BorderColor #C0C0C0
}
skinparam stereotypeIBackgroundColor Lavender
hide empty members


package broker.input {
	class ButtonStatus
	class GamepadBase
	class Stick
  interface GenericButtonStatusMap

  GenericButtonStatusMap *- - "n" ButtonStatus
  GamepadBase *- - GenericButtonStatusMap
  GamepadBase *- - Stick
}

  class YourGamepad {
    update()
  }
  enum YourButton
  class YourButtonStatusMap

  GamepadBase <|- - YourGamepad
  GenericButtonStatusMap <|.. YourButtonStatusMap
  YourGamepad *- - YourButtonStatusMap
  YourButtonStatusMap o- - "n" YourButton

@enduml

PlantUML version 1.2019.09(Tue Aug 27 01:19:51 GMT+09:00 2019)
(GPL source distribution)
Java Runtime: OpenJDK Runtime Environment
JVM: OpenJDK 64-Bit Server VM
Java Version: 1.8.0_252-b09
Operating System: Windows 10
OS Version: 10.0
Default Encoding: MS932
Language: ja
Country: JP
--></g></svg>