<?xml version="1.0" encoding="UTF-8" standalone="no"?><svg xmlns="http://www.w3.org/2000/svg" xmlns:xlink="http://www.w3.org/1999/xlink" contentScriptType="application/ecmascript" contentStyleType="text/css" height="142px" preserveAspectRatio="none" style="width:460px;height:142px;" version="1.1" viewBox="0 0 460 142" width="460px" zoomAndPan="magnify"><defs/><g><!--cluster banker.scene--><polygon fill="#FFFFFF" points="22,24,124,24,131,47.6094,438,47.6094,438,130,22,130,22,24" style="stroke: #A0A0A0; stroke-width: 1.5;"/><line style="stroke: #A0A0A0; stroke-width: 1.5;" x1="22" x2="131" y1="47.6094" y2="47.6094"/><text fill="#A0A0A0" font-family="sans-serif" font-size="14" font-weight="bold" lengthAdjust="spacingAndGlyphs" textLength="96" x="26" y="40.5332">banker.scene</text><!--class Scene--><rect fill="#FFFFFF" height="53.8359" id="Scene" style="stroke: #202020; stroke-width: 1.5;" width="67" x="355" y="60"/><ellipse cx="370" cy="76" fill="#ADD1B2" rx="11" ry="11" style="stroke: #202020; stroke-width: 1.0;"/><path d="M373.6875,77.2031 Q373.4375,80.6875 372.2969,81.8438 Q371.2656,82.8594 369.8594,82.8594 Q368.4531,82.8594 367.4219,81.8438 Q365.6719,80.0781 365.6719,76.4063 Q365.6719,72.1563 367.5469,70.25 Q368.5938,69.2344 369.9219,69.2344 Q371.3281,69.2344 372.1719,70.0469 Q373.6563,71.5625 373.5781,74.4375 L371.4531,74.4375 Q371.375,72.1094 370.7344,71.4688 Q370.4531,71.1719 369.9219,71.1719 Q369.4688,71.1719 369.1094,71.5469 Q367.875,72.7656 367.875,76.2813 Q367.875,79.3281 368.9219,80.3438 Q369.3438,80.7813 369.8594,80.7813 Q370.3125,80.7813 370.75,80.3438 Q371.3125,79.7969 371.3906,77.2031 L373.6875,77.2031 Z "/><text fill="#000000" font-family="sans-serif" font-size="12" lengthAdjust="spacingAndGlyphs" textLength="35" x="384" y="80.9102">Scene</text><line style="stroke: #202020; stroke-width: 1.5;" x1="356" x2="421" y1="92" y2="92"/><text fill="#000000" font-family="sans-serif" font-size="11" lengthAdjust="spacingAndGlyphs" textLength="41" x="361" y="107.4189">update()</text><!--class SceneStack--><rect fill="#FFFFFF" height="53.8359" id="SceneStack" style="stroke: #202020; stroke-width: 1.5;" width="97" x="198" y="60"/><ellipse cx="213" cy="76" fill="#ADD1B2" rx="11" ry="11" style="stroke: #202020; stroke-width: 1.0;"/><path d="M216.6875,77.2031 Q216.4375,80.6875 215.2969,81.8438 Q214.2656,82.8594 212.8594,82.8594 Q211.4531,82.8594 210.4219,81.8438 Q208.6719,80.0781 208.6719,76.4063 Q208.6719,72.1563 210.5469,70.25 Q211.5938,69.2344 212.9219,69.2344 Q214.3281,69.2344 215.1719,70.0469 Q216.6563,71.5625 216.5781,74.4375 L214.4531,74.4375 Q214.375,72.1094 213.7344,71.4688 Q213.4531,71.1719 212.9219,71.1719 Q212.4688,71.1719 212.1094,71.5469 Q210.875,72.7656 210.875,76.2813 Q210.875,79.3281 211.9219,80.3438 Q212.3438,80.7813 212.8594,80.7813 Q213.3125,80.7813 213.75,80.3438 Q214.3125,79.7969 214.3906,77.2031 L216.6875,77.2031 Z "/><text fill="#000000" font-family="sans-serif" font-size="12" lengthAdjust="spacingAndGlyphs" textLength="65" x="227" y="80.9102">SceneStack</text><line style="stroke: #202020; stroke-width: 1.5;" x1="199" x2="294" y1="92" y2="92"/><text fill="#000000" font-family="sans-serif" font-size="11" lengthAdjust="spacingAndGlyphs" textLength="41" x="204" y="107.4189">update()</text><path d="M38,65.5 L38,108.2031 A0,0 0 0 0 38,108.2031 L138,108.2031 A0,0 0 0 0 138,108.2031 L138,91 L197.925,87 L138,83 L138,75.5 L128,65.5 L38,65.5 A0,0 0 0 0 38,65.5 " fill="#FFFFFF" style="stroke: #C0C0C0; stroke-width: 1.0;"/><path d="M128,65.5 L128,75.5 L138,75.5 L128,65.5 " fill="#FFFFFF" style="stroke: #C0C0C0; stroke-width: 1.0;"/><text fill="#606060" font-family="sans-serif" font-size="13" lengthAdjust="spacingAndGlyphs" textLength="76" x="44" y="83.9951">Updates only</text><text fill="#606060" font-family="sans-serif" font-size="13" lengthAdjust="spacingAndGlyphs" textLength="79" x="44" y="100.3467">the top scene</text><!--reverse link SceneStack to Scene--><path d="M308.479,87 C324.45,87 341.058,87 354.903,87 " fill="none" id="SceneStack&lt;-Scene" style="stroke: #202020; stroke-width: 1.0;"/><polygon fill="#FFFFFF" points="295.288,87,301.288,91,307.288,87,301.288,83,295.288,87" style="stroke: #202020; stroke-width: 1.0;"/><text fill="#000000" font-family="sans-serif" font-size="13" lengthAdjust="spacingAndGlyphs" textLength="22" x="324.9592" y="101.966">1..n</text><!--
@startuml scene


skinparam shadowing false
skinparam backgroundColor White
skinparam package {
  BorderColor #A0A0A0
  FontColor #A0A0A0
}
skinparam class {
  BackgroundColor White
  ArrowColor #202020
  BorderColor #202020
  FontColor #000000
}
skinparam note {
  BackgroundColor White
  FontColor #606060
  BorderColor #C0C0C0
}
skinparam stereotypeIBackgroundColor Lavender
hide empty members


package banker.scene {
  left to right direction
	class Scene {
    update()
  }
	class SceneStack {
    update()
  }

  SceneStack o- - "1..n" Scene

  note left of SceneStack
  Updates only
  the top scene
  end note
}

@enduml

PlantUML version 1.2019.09(Tue Aug 27 01:19:51 GMT+09:00 2019)
(GPL source distribution)
Java Runtime: OpenJDK Runtime Environment
JVM: OpenJDK 64-Bit Server VM
Java Version: 1.8.0_252-b09
Operating System: Windows 10
OS Version: 10.0
Default Encoding: MS932
Language: ja
Country: JP
--></g></svg>